<svg width="423" height="623" viewBox="0 0 423 623" fill="none" xmlns="http://www.w3.org/2000/svg">
<g filter="url(#filter0_d_26_9)">
<path d="M418.564 267.796C367.228 258.69 425.991 365.383 398.859 391.258C374.195 476.724 436.979 592.909 418.564 612.203C400.15 631.498 303.381 532.151 279.322 542.594C255.262 553.036 230.876 450.855 204.834 450.855C178.793 450.855 173.152 444.047 149.092 433.604C125.033 423.162 140.375 375.274 121.961 355.979C103.547 336.684 10.5766 360.771 0.610885 335.561C-9.35482 310.351 107.433 133.488 0.610894 0H294.63L332.039 11.6117L351.267 24.6749L385.377 19.3327L418.564 1.73028e-07V93.9019V176.756V267.796Z" fill="url(#paint0_linear_26_9)"/>
</g>
<defs>
<filter id="filter0_d_26_9" x="-4" y="0" width="430" height="622.697" filterUnits="userSpaceOnUse" color-interpolation-filters="sRGB">
<feFlood flood-opacity="0" result="BackgroundImageFix"/>
<feColorMatrix in="SourceAlpha" type="matrix" values="0 0 0 0 0 0 0 0 0 0 0 0 0 0 0 0 0 0 127 0" result="hardAlpha"/>
<feOffset dy="4"/>
<feGaussianBlur stdDeviation="2"/>
<feComposite in2="hardAlpha" operator="out"/>
<feColorMatrix type="matrix" values="0 0 0 0 0 0 0 0 0 0 0 0 0 0 0 0 0 0 0.3 0"/>
<feBlend mode="normal" in2="BackgroundImageFix" result="effect1_dropShadow_26_9"/>
<feBlend mode="normal" in="SourceGraphic" in2="effect1_dropShadow_26_9" result="shape"/>
</filter>
<linearGradient id="paint0_linear_26_9" x1="204.834" y1="30.2209" x2="204.834" y2="445.791" gradientUnits="userSpaceOnUse">
<stop stop-color="#2A6E6D"/>
<stop offset="1" stop-color="#398E8B"/>
</linearGradient>
</defs>
</svg>
