<svg width="401" height="97" viewBox="0 0 401 97" fill="none" xmlns="http://www.w3.org/2000/svg">
<path d="M401 0.500008C401 11.5967 395.814 22.5847 385.738 32.8368C375.662 43.0888 394.618 75.6535 376 83.5C357.382 91.3465 310.326 74.3213 286 78.5678C261.674 82.8144 226.83 97 200.5 97C174.17 97 148.098 82.8144 123.772 78.5678C99.4462 74.3213 54.6181 80.3465 36 72.5C17.3819 64.6535 25.3382 43.0888 15.2621 32.8368C5.18608 22.5847 -2.30184e-06 11.5967 0 0.5L200.5 0.500008H401Z" fill="url(#paint0_linear_105_30)"/>
<defs>
<linearGradient id="paint0_linear_105_30" x1="200.5" y1="0.5" x2="200.5" y2="97" gradientUnits="userSpaceOnUse">
<stop stop-color="#398E8B"/>
<stop offset="1" stop-color="#2A6E6D"/>
</linearGradient>
</defs>
</svg>
